<?xml version="1.0" encoding="UTF-8"?>
<!DOCTYPE svg PUBLIC "-//W3C//DTD SVG 1.0//EN" "http://www.w3.org/TR/2001/REC-SVG-20010904/DTD/svg10.dtd">
<!-- Creator: CorelDRAW 2020 (64 Bit) -->
<svg xmlns="http://www.w3.org/2000/svg" xml:space="preserve" width="2024px" height="1024px" version="1.0" style="shape-rendering:geometricPrecision; text-rendering:geometricPrecision; image-rendering:optimizeQuality; fill-rule:evenodd; clip-rule:evenodd"
viewBox="0 0 2024 1024"
 xmlns:xlink="http://www.w3.org/1999/xlink"
 xmlns:xodm="http://www.corel.com/coreldraw/odm/2003">
 <defs>
  <style type="text/css">
   <![CDATA[
    .fil0 {fill:url(#id0)}
    .fil1 {fill:url(#id1);fill-rule:nonzero}
   ]]>
  </style>
  <linearGradient id="id0" gradientUnits="userSpaceOnUse" x1="95.67" y1="572.83" x2="482.51" y2="346.65">
   <stop offset="0" style="stop-opacity:1; stop-color:#997208"/>
   <stop offset="0.411765" style="stop-opacity:1; stop-color:#CC9A19"/>
   <stop offset="0.490196" style="stop-opacity:1; stop-color:#FFC32B"/>
   <stop offset="0.647059" style="stop-opacity:1; stop-color:#C08E21"/>
   <stop offset="1" style="stop-opacity:1; stop-color:#805916"/>
  </linearGradient>
  <linearGradient id="id1" gradientUnits="userSpaceOnUse" x1="506.92" y1="578.41" x2="1911" y2="535.11">
   <stop offset="0" style="stop-opacity:1; stop-color:#9B701A"/>
   <stop offset="0.470588" style="stop-opacity:1; stop-color:#FCC12A"/>
   <stop offset="1" style="stop-opacity:1; stop-color:#9B701A"/>
  </linearGradient>
 </defs>
 <g id="Camada_x0020_1">
  <metadata id="CorelCorpID_0Corel-Layer"/>
  <g id="_1228480448">
   <path className="fil0" d="M404.46 315.94c-83.22,-72.48 -169.04,-47.83 -221.68,-24.93 -142.41,61.97 -142.36,318.98 -0.07,369.71 55.63,19.84 162.74,21.95 235.06,-53.45l-2.2 -48.29c-77.44,120.97 -273.76,85.38 -280.39,-29.54l188.73 2.63 37.98 -42.17 -236.33 -2.64c-0.97,-10.97 -0.9,-6.58 0.37,-18.45l200.74 2.64 35.22 -42.17 -224.76 -2.64c2.47,-102.27 175.08,-177.85 269.92,-54.1l-2.59 -56.6z"/>
   <path className="fil1" d="M467.23 637.66l0 -4.26c12.72,0 22.53,-3.62 29.5,-10.78 3.87,-4.07 6.58,-9.23 8,-15.49 1.48,-6.26 2.19,-15.81 2.19,-28.72l0 -139.66c0,-13.36 -0.77,-23.23 -2.38,-29.62 -1.55,-6.39 -4.46,-11.62 -8.78,-15.62 -3.55,-3.29 -7.49,-5.68 -11.81,-7.23 -4.33,-1.48 -9.94,-2.38 -16.72,-2.64l0 -4.26 120.43 0 0 4.26c-6.91,0.38 -12.58,1.35 -17.04,2.84 -4.39,1.48 -8.26,3.93 -11.68,7.16 -4.26,4.19 -7.16,9.42 -8.71,15.75 -1.49,6.32 -2.26,16.07 -2.26,29.36l0 109.2c0,16.78 0.45,29.3 1.29,37.5 0.9,8.19 2.65,14.9 5.16,20.07 4.39,9.1 10.91,15.74 19.62,20 8.71,4.2 20.2,6.33 34.59,6.33 14.98,0 27.63,-2 37.89,-5.94 10.26,-4 18.71,-10.13 25.23,-18.46 4.39,-5.68 8.07,-12.13 10.91,-19.36 2.77,-7.16 5.42,-16.65 7.81,-28.4l4.64 0.39 -2.71 77.58 -225.17 0zm236.14 0l0 -4.26c12.72,0 22.53,-3.62 29.5,-10.78 3.87,-4.07 6.58,-9.23 8,-15.49 1.49,-6.26 2.2,-15.81 2.2,-28.72l0 -139.66c0,-13.36 -0.78,-23.23 -2.39,-29.62 -1.55,-6.39 -4.45,-11.62 -8.78,-15.62 -3.55,-3.29 -7.49,-5.68 -11.81,-7.23 -4.32,-1.48 -9.94,-2.38 -16.72,-2.64l0 -4.26 120.43 0 0 4.26c-6.9,0.38 -12.58,1.35 -17.04,2.84 -4.39,1.48 -8.26,3.93 -11.68,7.16 -4.26,4.19 -7.16,9.42 -8.71,15.75 -1.48,6.32 -2.26,16.07 -2.26,29.36l0 109.2c0,16.78 0.45,29.3 1.29,37.5 0.91,8.19 2.65,14.9 5.17,20.07 4.38,9.1 10.9,15.74 19.61,20 8.72,4.2 20.2,6.33 34.6,6.33 14.97,0 27.62,-2 37.88,-5.94 10.26,-4 18.72,-10.13 25.23,-18.46 4.39,-5.68 8.07,-12.13 10.91,-19.36 2.78,-7.16 5.42,-16.65 7.81,-28.4l4.65 0.39 -2.71 77.58 -225.18 0zm353.99 -258.28l0 4.26c-7.23,0.38 -13.1,1.42 -17.68,3.03 -4.52,1.61 -8.52,4.26 -11.88,7.94 -4.19,4.26 -6.97,9.55 -8.26,15.88 -1.35,6.32 -2,17.16 -2,32.52l0 107.07c0,17.42 0.65,30.01 2,37.75 1.29,7.75 4,14.91 8.07,21.43 6.07,10 13.55,17.23 22.39,21.68 8.91,4.46 20.14,6.72 33.69,6.72 13.11,0 25.62,-2 37.57,-5.94 11.93,-4 21.87,-9.49 29.88,-16.59 4.9,-4.39 8.51,-9.16 10.84,-14.39 2.39,-5.16 3.93,-11.68 4.64,-19.62 0.52,-5.16 0.78,-17.42 0.78,-36.72l0 -105.71c0,-12.98 -0.71,-22.59 -2.2,-28.79 -1.42,-6.13 -4.13,-11.23 -8.06,-15.29 -3.49,-3.68 -7.49,-6.33 -12.01,-7.94 -4.45,-1.61 -10.32,-2.65 -17.49,-3.03l0 -4.26 87.19 0 0 4.26c-7.16,0.38 -12.97,1.35 -17.49,3.03 -4.45,1.61 -8.45,4.26 -12,7.94 -3.87,4 -6.58,9.16 -8,15.42 -1.49,6.2 -2.2,15.75 -2.2,28.66l0 119.33c0,17.62 -1.35,30.65 -4.06,39.04 -2.71,8.39 -8.07,16.01 -16.14,22.98 -18.39,15.87 -44.66,23.81 -78.86,23.81 -35.63,0 -61.89,-7.48 -78.8,-22.52 -10.97,-9.55 -17.49,-22.2 -19.62,-37.82 -0.77,-5.55 -1.16,-15.55 -1.16,-30.08l0 -114.74c0,-13.04 -0.71,-22.59 -2.07,-28.79 -1.42,-6.13 -4.13,-11.29 -8.13,-15.29 -3.42,-3.68 -7.36,-6.33 -11.81,-7.94 -4.52,-1.68 -10.39,-2.65 -17.68,-3.03l0 -4.26 120.55 0zm169.28 0l124.3 0 0 4.26c-8.65,0 -15.36,0.77 -20,2.26 -7.55,2.45 -11.36,6.97 -11.36,13.74 0,6.91 5.22,17.88 15.62,32.92l33.3 48.4 29.04 -35.75c11.42,-14.01 18.84,-23.82 22.26,-29.43 3.43,-5.62 5.1,-10.78 5.1,-15.62 0,-6.71 -3.55,-11.3 -10.65,-13.88 -3.22,-1.22 -9.03,-2.13 -17.23,-2.64l0 -4.26 86.74 0 0 4.26c-9.55,0 -16.97,1.29 -22.27,3.8 -8.19,3.81 -19.1,14.27 -32.72,31.5l-14.39 18.13 -41.17 50.92 64.86 96.68c11.49,17.17 21.94,29.62 31.3,37.37 4.77,3.87 9.49,6.71 14.13,8.32 4.59,1.62 10.78,2.65 18.46,3.04l0 4.26 -131.66 0 0 -4.26c10.2,-1.17 17.69,-2.91 22.33,-5.36 7.55,-3.74 11.36,-9.1 11.36,-15.94 0,-2.39 -0.77,-5.16 -2.26,-8.33 -1.48,-3.16 -4.32,-7.87 -8.45,-14.19l-45.95 -70.03 -45.18 54.92c-6.97,8.46 -11.94,15.49 -14.91,21.11 -2.96,5.61 -4.45,10.78 -4.45,15.62 0,6.84 2.58,12.06 7.68,15.81 5.1,3.74 12.72,5.87 22.78,6.39l0 4.26 -91.64 0 0 -4.26c6.9,-1.29 12.65,-3.1 17.23,-5.43 4.58,-2.32 9.94,-6.45 16.07,-12.26 9.1,-8.32 21.88,-22.52 38.46,-42.59l49.25 -60.15 -58.67 -87.96 -10 -14.65c-7.36,-10.72 -13.49,-17.69 -18.52,-20.85 -4.58,-2.77 -12.26,-4.58 -23.11,-5.49 -1.29,0 -3.16,-0.12 -5.68,-0.38l0 -4.26zm402.72 0l0 4.26c-7.23,0.38 -13.1,1.42 -17.69,3.03 -4.51,1.61 -8.52,4.26 -11.87,7.94 -4.2,4.26 -6.97,9.55 -8.26,15.88 -1.36,6.32 -2,17.16 -2,32.52l0 107.07c0,17.42 0.64,30.01 2,37.75 1.29,7.75 4,14.91 8.06,21.43 6.07,10 13.56,17.23 22.4,21.68 8.91,4.46 20.14,6.72 33.69,6.72 13.1,0 25.62,-2 37.56,-5.94 11.94,-4 21.88,-9.49 29.88,-16.59 4.9,-4.39 8.52,-9.16 10.84,-14.39 2.39,-5.16 3.94,-11.68 4.65,-19.62 0.52,-5.16 0.77,-17.42 0.77,-36.72l0 -105.71c0,-12.98 -0.71,-22.59 -2.19,-28.79 -1.42,-6.13 -4.13,-11.23 -8.07,-15.29 -3.48,-3.68 -7.48,-6.33 -12,-7.94 -4.46,-1.61 -10.33,-2.65 -17.49,-3.03l0 -4.26 87.19 0 0 4.26c-7.17,0.38 -12.97,1.35 -17.49,3.03 -4.45,1.61 -8.46,4.26 -12.01,7.94 -3.87,4 -6.58,9.16 -8,15.42 -1.48,6.2 -2.19,15.75 -2.19,28.66l0 119.33c0,17.62 -1.36,30.65 -4.07,39.04 -2.71,8.39 -8.07,16.01 -16.13,22.98 -18.4,15.87 -44.66,23.81 -78.87,23.81 -35.62,0 -61.89,-7.48 -78.8,-22.52 -10.97,-9.55 -17.49,-22.2 -19.62,-37.82 -0.77,-5.55 -1.16,-15.55 -1.16,-30.08l0 -114.74c0,-13.04 -0.71,-22.59 -2.06,-28.79 -1.42,-6.13 -4.13,-11.29 -8.14,-15.29 -3.42,-3.68 -7.35,-6.33 -11.8,-7.94 -4.52,-1.68 -10.4,-2.65 -17.69,-3.03l0 -4.26 120.56 0zm182.44 257.11l0.58 -78.21 4.46 0.77c5.29,19.88 11.62,35.49 18.97,46.92 13.75,21.1 31.11,31.69 51.95,31.69 14.59,0 26.59,-4.84 36.08,-14.59 9.49,-9.68 14.2,-22.01 14.2,-36.85 0,-6.45 -1.03,-13.04 -3.16,-19.68 -2.07,-6.72 -4.84,-12.46 -8.39,-17.24 -3.68,-4.9 -8.84,-9.61 -15.49,-14.19 -6.65,-4.52 -16.78,-10.27 -30.46,-17.24 -12.07,-6 -21.24,-11.16 -27.63,-15.29 -6.39,-4.2 -11.55,-8.39 -15.48,-12.65 -10.91,-11.87 -16.33,-26.33 -16.33,-43.37 0,-10.45 2.13,-20.52 6.39,-30.27 4.19,-9.68 10.13,-18 17.74,-24.97 13.43,-12.33 29.37,-18.52 47.7,-18.52 6,0 11.48,0.58 16.58,1.74 5.04,1.22 11.81,3.55 20.33,7.1 6.33,2.51 10.65,4.13 12.91,4.77 2.32,0.71 4.32,1.03 6.13,1.03 4.39,0 7.36,-3.16 8.91,-9.61l4.26 0 1.16 75.12 -4.26 0c-3.42,-12 -6.33,-21.23 -8.84,-27.62 -2.45,-6.39 -5.36,-12.26 -8.78,-17.68 -6.19,-9.88 -13.04,-17.17 -20.46,-21.95 -7.48,-4.71 -16.07,-7.1 -25.81,-7.1 -14.14,0 -25.3,4.78 -33.56,14.4 -3.42,3.93 -6.07,8.58 -8.01,13.87 -2,5.29 -2.96,10.59 -2.96,15.94 0,21.1 13.55,38.08 40.72,50.99l26.65 12.9c20.59,9.75 35.43,20.53 44.47,32.27 10.39,13.17 15.55,28.46 15.55,45.89 0,11.55 -2.32,22.59 -7.03,33.11 -6.58,14.65 -16.46,26 -29.56,33.94 -13.16,7.94 -28.65,11.94 -46.53,11.94 -16.33,0 -32.01,-3.22 -47.05,-9.74 -7.87,-3.49 -12.52,-5.42 -14.07,-5.94 -1.48,-0.52 -3.22,-0.77 -5.1,-0.77 -6.06,0 -10.26,3.03 -12.52,9.09l-4.26 0z"/>
  </g>
 </g>
</svg>
